<?xml version="1.0" standalone="no"?>
<!DOCTYPE svg PUBLIC "-//W3C//DTD SVG 20010904//EN"
 "http://www.w3.org/TR/2001/REC-SVG-20010904/DTD/svg10.dtd">
<svg version="1.0" xmlns="http://www.w3.org/2000/svg"
 width="700.000000pt" height="700.000000pt" viewBox="0 0 700.000000 700.000000"
 preserveAspectRatio="xMidYMid meet">
<metadata>
Created by potrace 1.14, written by Peter Selinger 2001-2017
</metadata>
<g transform="translate(0.000000,700.000000) scale(0.100000,-0.100000)"
fill="#000000" stroke="none">
<path d="M3278 6995 c-2 -1 -41 -5 -88 -9 -47 -4 -96 -8 -110 -10 -14 -3 -48
-7 -75 -10 -78 -9 -209 -35 -340 -67 -468 -118 -920 -341 -1299 -643 -265
-211 -516 -482 -702 -756 -309 -456 -482 -911 -568 -1500 -21 -142 -29 -570
-13 -745 12 -136 44 -329 77 -468 187 -783 633 -1467 1275 -1952 487 -369
1051 -595 1670 -671 153 -18 501 -24 670 -11 86 7 142 14 335 43 19 3 92 19
161 35 853 197 1590 706 2079 1434 286 426 492 965 545 1431 4 32 9 67 11 78
25 133 25 604 -1 796 -4 34 -16 120 -21 150 -83 561 -338 1130 -718 1605 -232
290 -565 585 -859 761 -27 16 -70 42 -95 57 -84 50 -364 184 -474 226 -171 66
-425 141 -563 165 -16 3 -41 8 -55 10 -23 5 -182 27 -290 42 -46 6 -546 15
-552 9z"/>
</g>
</svg>
